<svg width="27" height="28" viewBox="0 0 27 28" fill="none" xmlns="http://www.w3.org/2000/svg">
<path d="M16 28H5C4.73478 28 4.48043 27.8946 4.29289 27.7071C4.10536 27.5196 4 27.2652 4 27V6C4 5.73478 4.10536 5.48043 4.29289 5.29289C4.48043 5.10536 4.73478 5 5 5H26C26.2652 5 26.5196 5.10536 26.7071 5.29289C26.8946 5.48043 27 5.73478 27 6V27C27 27.2652 26.8946 27.5196 26.7071 27.7071C26.5196 27.8946 26.2652 28 26 28H20V19H22.559C22.6815 19.0009 22.8001 18.9569 22.8923 18.8761C22.9845 18.7954 23.0438 18.6836 23.059 18.562L23.434 15.562C23.4428 15.4913 23.4365 15.4196 23.4153 15.3516C23.3942 15.2836 23.3588 15.2208 23.3114 15.1676C23.2641 15.1144 23.2059 15.0719 23.1408 15.043C23.0757 15.0141 23.0052 14.9994 22.934 15H20V13.685C20.0005 13.2381 20.1784 12.8097 20.4945 12.4938C20.8106 12.1778 21.2391 12.0003 21.686 12H23.5C23.6326 12 23.7598 11.9473 23.8536 11.8536C23.9473 11.7598 24 11.6326 24 11.5V8.5C24 8.36739 23.9473 8.24021 23.8536 8.14645C23.7598 8.05268 23.6326 8 23.5 8H21.686C20.1786 8.00159 18.7335 8.60102 17.6675 9.66679C16.6015 10.7326 16.0019 12.1776 16 13.685V15H13.5C13.3674 15 13.2402 15.0527 13.1464 15.1464C13.0527 15.2402 13 15.3674 13 15.5V18.5C13 18.6326 13.0527 18.7598 13.1464 18.8536C13.2402 18.9473 13.3674 19 13.5 19H16V28Z" fill="url(#paint0_linear)"/>
<path d="M13 24H2C1.73478 24 1.48043 23.8946 1.29289 23.7071C1.10536 23.5196 1 23.2652 1 23V2C1 1.73478 1.10536 1.48043 1.29289 1.29289C1.48043 1.10536 1.73478 1 2 1H23C23.2652 1 23.5196 1.10536 23.7071 1.29289C23.8946 1.48043 24 1.73478 24 2V23C24 23.2652 23.8946 23.5196 23.7071 23.7071C23.5196 23.8946 23.2652 24 23 24H17V15H19.559C19.6815 15.0009 19.8001 14.9569 19.8923 14.8761C19.9845 14.7954 20.0438 14.6836 20.059 14.562L20.434 11.562C20.4428 11.4913 20.4365 11.4196 20.4153 11.3516C20.3942 11.2836 20.3588 11.2208 20.3114 11.1676C20.2641 11.1144 20.2059 11.0719 20.1408 11.043C20.0757 11.0141 20.0052 10.9995 19.934 11H17V9.685C17.0005 9.2381 17.1784 8.80967 17.4945 8.49376C17.8106 8.17784 18.2391 8.00026 18.686 8H20.5C20.6326 8 20.7598 7.94732 20.8536 7.85355C20.9473 7.75979 21 7.63261 21 7.5V4.5C21 4.36739 20.9473 4.24021 20.8536 4.14645C20.7598 4.05268 20.6326 4 20.5 4H18.686C17.1786 4.00159 15.7335 4.60102 14.6675 5.66679C13.6015 6.73256 13.0019 8.17764 13 9.685V11H10.5C10.3674 11 10.2402 11.0527 10.1464 11.1464C10.0527 11.2402 10 11.3674 10 11.5V14.5C10 14.6326 10.0527 14.7598 10.1464 14.8536C10.2402 14.9473 10.3674 15 10.5 15H13V24Z" stroke="#343C60" stroke-width="2" stroke-linecap="round" stroke-linejoin="round"/>
<defs>
<linearGradient id="paint0_linear" x1="15.5" y1="5" x2="15.5" y2="28" gradientUnits="userSpaceOnUse">
<stop stop-color="#7D93F3"/>
<stop offset="1" stop-color="#7D93F3" stop-opacity="0"/>
</linearGradient>
</defs>
</svg>
