<svg width="19" height="15" viewBox="0 0 19 15" fill="none" xmlns="http://www.w3.org/2000/svg">
<path d="M9.52125 2.67717C9.52125 2.67717 9.43624 2.53609 9.26622 2.25394C9.0962 1.97178 8.83054 1.66339 8.46924 1.32874C8.10794 0.994093 7.64747 0.688978 7.08781 0.413386C6.52815 0.137794 5.86578 0 5.10067 0C4.26472 0 3.53151 0.147636 2.90101 0.442913C2.2705 0.73819 1.73919 1.13189 1.30705 1.62402C0.874905 2.11614 0.549032 2.67716 0.329418 3.30709C0.109805 3.93701 0 4.58005 0 5.23622C0 6.32546 0.495894 7.4475 1.4877 8.60236C2.4795 9.75722 3.57046 10.8104 4.76063 11.7618C5.95079 12.7133 7.04176 13.4908 8.03356 14.0945C9.02536 14.6982 9.52125 15 9.52125 15C9.52125 15 10.0171 14.6982 11.0089 14.0945C12.0008 13.4908 13.0846 12.7165 14.2606 11.7717C15.4366 10.8268 16.5205 9.77691 17.5123 8.62205C18.5041 7.46719 19 6.33859 19 5.23622C19 4.56693 18.8867 3.91733 18.66 3.2874C18.4333 2.65748 18.1074 2.09974 17.6823 1.61417C17.2573 1.12861 16.7295 0.73819 16.099 0.442913C15.4685 0.147636 14.7494 0 13.9418 0C13.1342 0 12.4506 0.137794 11.8909 0.413386C11.3313 0.688978 10.8779 0.994093 10.5308 1.32874C10.1836 1.66339 9.9286 1.97178 9.76566 2.25394C9.60272 2.53609 9.52125 2.67717 9.52125 2.67717Z" fill="white"/>
</svg>
