<svg width="14" height="14" viewBox="0 0 14 14" fill="none" xmlns="http://www.w3.org/2000/svg">
<path d="M12.4345 1.56547C12.2529 1.38458 12.0372 1.24148 11.8 1.14443C11.5627 1.04738 11.3086 0.998309 11.0523 1.00004C10.7959 1.00178 10.5425 1.05429 10.3066 1.15455C10.0706 1.2548 9.85693 1.40081 9.67776 1.58414L1.94452 9.31738L1 13L4.68262 12.0555L12.4159 4.32224C12.5992 4.14307 12.7452 3.92936 12.8455 3.69344C12.9457 3.45752 12.9982 3.20407 13 2.94774C13.0017 2.69141 12.9526 2.43728 12.8556 2.20002C12.7585 1.96277 12.6154 1.7471 12.4345 1.56547V1.56547Z" stroke="white" stroke-width="1.33333" stroke-linecap="round" stroke-linejoin="round"/>
<path d="M9.4563 1.80548L12.1944 4.54358" stroke="white" stroke-width="1.33333" stroke-linecap="round" stroke-linejoin="round"/>
<path d="M8.3396 2.92224L11.0777 5.66034" stroke="white" stroke-width="1.33333" stroke-linecap="round" stroke-linejoin="round"/>
<path d="M1.94458 9.31738L4.68535 12.0528" stroke="white" stroke-width="1.33333" stroke-linecap="round" stroke-linejoin="round"/>
</svg>
